M48
METRIC,LZ,000.000
;FILE_FORMAT=3:3
;TYPE=PLATED
;Layer: PTH_Through
;EasyEDA v6.5.42, 2024-04-26 10:31:32
;9f6459e1cdc04d20a695041d627ca585,394a4af37713441991a7fd952f151f2e,10
;Gerber Generator version 0.2
;Holesize 1 = 0.310 mm
T01C0.310
;Holesize 2 = 0.915 mm
T02C0.915
;Holesize 3 = 1.021 mm
T03C1.021
;Holesize 4 = 1.101 mm
T04C1.101
;Holesize 5 = 1.501 mm
T05C1.501
%
G05
G90
T01
X063246Y063669
X016256Y074676
X029210Y053467
X013970Y053467
X014732Y060452
X046990Y031877
X024003Y026797
T02
X043307Y080137
X043307Y069977
X038227Y080137
X038227Y069977
T03
X013970Y029972
X016510Y029972
X019050Y029972
X021590Y029972
X024130Y029972
X026670Y029972
X029210Y029972
X031750Y029972
X034290Y029972
X036830Y029972
X039370Y029972
X041910Y029972
X044450Y029972
X046990Y029972
X049530Y029972
X052070Y029972
X054610Y029972
X057150Y029972
X059690Y029972
X013970Y055372
X016510Y055372
X019050Y055372
X021590Y055372
X024130Y055372
X026670Y055372
X029210Y055372
X031750Y055372
X034290Y055372
X036830Y055372
X039370Y055372
X041910Y055372
X044450Y055372
X046990Y055372
X049530Y055372
X052070Y055372
X054610Y055372
X057150Y055372
X059690Y055372
T04
X059881Y063246
X059881Y065786
X059754Y068326
X053253Y023368
X055753Y023368
X058253Y023368
X040595Y023368
X043095Y023368
X045595Y023368
X027938Y023368
X030438Y023368
X032938Y023368
X015280Y023368
X017780Y023368
X020280Y023368
X035814Y061087
X039624Y061087
X043434Y061087
X047244Y061087
T05
X016699Y081676G85X020449Y081676
X016699Y067676G85X020449Y067676
X020699Y074676G85X024449Y074676
M30
