G04 Layer: TopSilkscreenLayer*
G04 EasyEDA v6.5.42, 2024-04-26 10:31:32*
G04 9f6459e1cdc04d20a695041d627ca585,394a4af37713441991a7fd952f151f2e,10*
G04 Gerber Generator version 0.2*
G04 Scale: 100 percent, Rotated: No, Reflected: No *
G04 Dimensions in millimeters *
G04 leading zeros omitted , absolute positions ,4 integer and 5 decimal *
%FSLAX45Y45*%
%MOMM*%

%ADD10C,0.2032*%
%ADD11C,0.1524*%
%ADD12C,0.2540*%

%LPD*%
D10*
X3592829Y8845550D02*
G01*
X3583686Y8864092D01*
X3565143Y8882634D01*
X3546856Y8891778D01*
X3509772Y8891778D01*
X3491229Y8882634D01*
X3472941Y8864092D01*
X3463543Y8845550D01*
X3454400Y8817863D01*
X3454400Y8771889D01*
X3463543Y8743950D01*
X3472941Y8725662D01*
X3491229Y8707120D01*
X3509772Y8697976D01*
X3546856Y8697976D01*
X3565143Y8707120D01*
X3583686Y8725662D01*
X3592829Y8743950D01*
X3653790Y8891778D02*
G01*
X3653790Y8697976D01*
X3653790Y8891778D02*
G01*
X3737102Y8891778D01*
X3764788Y8882634D01*
X3773931Y8873489D01*
X3783329Y8854947D01*
X3783329Y8836405D01*
X3773931Y8817863D01*
X3764788Y8808720D01*
X3737102Y8799576D01*
X3653790Y8799576D01*
X3718559Y8799576D02*
G01*
X3783329Y8697976D01*
X3844290Y8891778D02*
G01*
X3844290Y8697976D01*
X3844290Y8891778D02*
G01*
X3964177Y8891778D01*
X3844290Y8799576D02*
G01*
X3917950Y8799576D01*
X3844290Y8697976D02*
G01*
X3964177Y8697976D01*
X4099052Y8891778D02*
G01*
X4025138Y8697976D01*
X4099052Y8891778D02*
G01*
X4172965Y8697976D01*
X4052824Y8762492D02*
G01*
X4145279Y8762492D01*
X4298695Y8891778D02*
G01*
X4298695Y8697976D01*
X4233925Y8891778D02*
G01*
X4363211Y8891778D01*
X4479543Y8891778D02*
G01*
X4461256Y8882634D01*
X4442713Y8864092D01*
X4433570Y8845550D01*
X4424172Y8817863D01*
X4424172Y8771889D01*
X4433570Y8743950D01*
X4442713Y8725662D01*
X4461256Y8707120D01*
X4479543Y8697976D01*
X4516627Y8697976D01*
X4535170Y8707120D01*
X4553458Y8725662D01*
X4562856Y8743950D01*
X4572000Y8771889D01*
X4572000Y8817863D01*
X4562856Y8845550D01*
X4553458Y8864092D01*
X4535170Y8882634D01*
X4516627Y8891778D01*
X4479543Y8891778D01*
X4632959Y8891778D02*
G01*
X4632959Y8697976D01*
X4632959Y8891778D02*
G01*
X4716018Y8891778D01*
X4743704Y8882634D01*
X4753102Y8873489D01*
X4762245Y8854947D01*
X4762245Y8836405D01*
X4753102Y8817863D01*
X4743704Y8808720D01*
X4716018Y8799576D01*
X4632959Y8799576D01*
X4697729Y8799576D02*
G01*
X4762245Y8697976D01*
X4832350Y8808720D02*
G01*
X4823206Y8799576D01*
X4832350Y8790178D01*
X4841747Y8799576D01*
X4832350Y8808720D01*
X4832350Y8743950D02*
G01*
X4823206Y8734805D01*
X4832350Y8725662D01*
X4841747Y8734805D01*
X4832350Y8743950D01*
X3985513Y8536178D02*
G01*
X3911600Y8342376D01*
X3985513Y8536178D02*
G01*
X4059427Y8342376D01*
X3939286Y8406892D02*
G01*
X4031741Y8406892D01*
X4120388Y8536178D02*
G01*
X4120388Y8342376D01*
X4120388Y8342376D02*
G01*
X4231131Y8342376D01*
X4366006Y8536178D02*
G01*
X4292091Y8342376D01*
X4366006Y8536178D02*
G01*
X4439920Y8342376D01*
X4319777Y8406892D02*
G01*
X4412234Y8406892D01*
X4500879Y8536178D02*
G01*
X4500879Y8342376D01*
X4500879Y8536178D02*
G01*
X4621022Y8536178D01*
X4500879Y8443976D02*
G01*
X4574793Y8443976D01*
X4824222Y8536178D02*
G01*
X4824222Y8342376D01*
X4824222Y8536178D02*
G01*
X4907279Y8536178D01*
X4934965Y8527034D01*
X4944109Y8517889D01*
X4953508Y8499347D01*
X4953508Y8480805D01*
X4944109Y8462263D01*
X4934965Y8453120D01*
X4907279Y8443976D01*
X4824222Y8443976D01*
X4888738Y8443976D02*
G01*
X4953508Y8342376D01*
X5088381Y8536178D02*
G01*
X5014468Y8342376D01*
X5088381Y8536178D02*
G01*
X5162295Y8342376D01*
X5042154Y8406892D02*
G01*
X5134609Y8406892D01*
X5223256Y8536178D02*
G01*
X5223256Y8342376D01*
X5223256Y8536178D02*
G01*
X5297170Y8342376D01*
X5370829Y8536178D02*
G01*
X5297170Y8342376D01*
X5370829Y8536178D02*
G01*
X5370829Y8342376D01*
X5505704Y8536178D02*
G01*
X5431790Y8342376D01*
X5505704Y8536178D02*
G01*
X5579618Y8342376D01*
X5459729Y8406892D02*
G01*
X5551931Y8406892D01*
X5640577Y8536178D02*
G01*
X5640577Y8342376D01*
X5640577Y8536178D02*
G01*
X5705347Y8536178D01*
X5733034Y8527034D01*
X5751575Y8508492D01*
X5760720Y8489950D01*
X5769863Y8462263D01*
X5769863Y8416289D01*
X5760720Y8388350D01*
X5751575Y8370062D01*
X5733034Y8351520D01*
X5705347Y8342376D01*
X5640577Y8342376D01*
X5830824Y8536178D02*
G01*
X5830824Y8342376D01*
X5960109Y8536178D02*
G01*
X5960109Y8342376D01*
X5830824Y8443976D02*
G01*
X5960109Y8443976D01*
X6094984Y8536178D02*
G01*
X6021070Y8342376D01*
X6094984Y8536178D02*
G01*
X6168897Y8342376D01*
X6049009Y8406892D02*
G01*
X6141211Y8406892D01*
X6229858Y8536178D02*
G01*
X6229858Y8342376D01*
X6229858Y8536178D02*
G01*
X6359143Y8342376D01*
X6359143Y8536178D02*
G01*
X6359143Y8342376D01*
D11*
X5263134Y6625844D02*
G01*
X5372100Y6574028D01*
X5263134Y6553200D02*
G01*
X5263134Y6625844D01*
X5263134Y6686295D02*
G01*
X5268213Y6670547D01*
X5278627Y6665468D01*
X5289041Y6665468D01*
X5299456Y6670547D01*
X5304790Y6680962D01*
X5309870Y6701789D01*
X5314950Y6717284D01*
X5325363Y6727697D01*
X5335777Y6733031D01*
X5351525Y6733031D01*
X5361940Y6727697D01*
X5367020Y6722618D01*
X5372100Y6706870D01*
X5372100Y6686295D01*
X5367020Y6670547D01*
X5361940Y6665468D01*
X5351525Y6660134D01*
X5335777Y6660134D01*
X5325363Y6665468D01*
X5314950Y6675881D01*
X5309870Y6691376D01*
X5304790Y6712204D01*
X5299456Y6722618D01*
X5289041Y6727697D01*
X5278627Y6727697D01*
X5268213Y6722618D01*
X5263134Y6706870D01*
X5263134Y6686295D01*
X5263134Y6798310D02*
G01*
X5268213Y6782815D01*
X5283961Y6772402D01*
X5309870Y6767321D01*
X5325363Y6767321D01*
X5351525Y6772402D01*
X5367020Y6782815D01*
X5372100Y6798310D01*
X5372100Y6808723D01*
X5367020Y6824471D01*
X5351525Y6834886D01*
X5325363Y6839965D01*
X5309870Y6839965D01*
X5283961Y6834886D01*
X5268213Y6824471D01*
X5263134Y6808723D01*
X5263134Y6798310D01*
X5263134Y6936739D02*
G01*
X5263134Y6884670D01*
X5309870Y6879589D01*
X5304790Y6884670D01*
X5299456Y6900163D01*
X5299456Y6915912D01*
X5304790Y6931405D01*
X5314950Y6941820D01*
X5330697Y6946900D01*
X5341111Y6946900D01*
X5356606Y6941820D01*
X5367020Y6931405D01*
X5372100Y6915912D01*
X5372100Y6900163D01*
X5367020Y6884670D01*
X5361940Y6879589D01*
X5351525Y6874255D01*
X3480815Y8175244D02*
G01*
X3371850Y8216900D01*
X3480815Y8175244D02*
G01*
X3371850Y8133842D01*
X3408172Y8201405D02*
G01*
X3408172Y8149336D01*
X3454908Y8021573D02*
G01*
X3465322Y8026654D01*
X3475736Y8037068D01*
X3480815Y8047481D01*
X3480815Y8068310D01*
X3475736Y8078723D01*
X3465322Y8089137D01*
X3454908Y8094218D01*
X3439159Y8099552D01*
X3413252Y8099552D01*
X3397758Y8094218D01*
X3387343Y8089137D01*
X3376929Y8078723D01*
X3371850Y8068310D01*
X3371850Y8047481D01*
X3376929Y8037068D01*
X3387343Y8026654D01*
X3397758Y8021573D01*
X3418586Y7987284D02*
G01*
X3418586Y7893812D01*
X3454908Y7781544D02*
G01*
X3465322Y7786623D01*
X3475736Y7797037D01*
X3480815Y7807452D01*
X3480815Y7828279D01*
X3475736Y7838694D01*
X3465322Y7849108D01*
X3454908Y7854187D01*
X3439159Y7859521D01*
X3413252Y7859521D01*
X3397758Y7854187D01*
X3387343Y7849108D01*
X3376929Y7838694D01*
X3371850Y7828279D01*
X3371850Y7807452D01*
X3376929Y7797037D01*
X3387343Y7786623D01*
X3397758Y7781544D01*
X3480815Y7716012D02*
G01*
X3475736Y7726426D01*
X3465322Y7736839D01*
X3454908Y7741920D01*
X3439159Y7747254D01*
X3413252Y7747254D01*
X3397758Y7741920D01*
X3387343Y7736839D01*
X3376929Y7726426D01*
X3371850Y7716012D01*
X3371850Y7695184D01*
X3376929Y7684770D01*
X3387343Y7674610D01*
X3397758Y7669276D01*
X3413252Y7664195D01*
X3439159Y7664195D01*
X3454908Y7669276D01*
X3465322Y7674610D01*
X3475736Y7684770D01*
X3480815Y7695184D01*
X3480815Y7716012D01*
X3480815Y7629905D02*
G01*
X3371850Y7629905D01*
X3480815Y7629905D02*
G01*
X3371850Y7557008D01*
X3480815Y7557008D02*
G01*
X3371850Y7557008D01*
X3480815Y7522718D02*
G01*
X3371850Y7522718D01*
X3480815Y7522718D02*
G01*
X3371850Y7450073D01*
X3480815Y7450073D02*
G01*
X3371850Y7450073D01*
X3480815Y7415784D02*
G01*
X3371850Y7415784D01*
X3480815Y7415784D02*
G01*
X3480815Y7348220D01*
X3429000Y7415784D02*
G01*
X3429000Y7374128D01*
X3371850Y7415784D02*
G01*
X3371850Y7348220D01*
X3454908Y7235952D02*
G01*
X3465322Y7241286D01*
X3475736Y7251700D01*
X3480815Y7261860D01*
X3480815Y7282687D01*
X3475736Y7293102D01*
X3465322Y7303515D01*
X3454908Y7308850D01*
X3439159Y7313929D01*
X3413252Y7313929D01*
X3397758Y7308850D01*
X3387343Y7303515D01*
X3376929Y7293102D01*
X3371850Y7282687D01*
X3371850Y7261860D01*
X3376929Y7251700D01*
X3387343Y7241286D01*
X3397758Y7235952D01*
X3480815Y7165339D02*
G01*
X3371850Y7165339D01*
X3480815Y7201662D02*
G01*
X3480815Y7129018D01*
X3480815Y7063486D02*
G01*
X3475736Y7073900D01*
X3465322Y7084313D01*
X3454908Y7089394D01*
X3439159Y7094728D01*
X3413252Y7094728D01*
X3397758Y7089394D01*
X3387343Y7084313D01*
X3376929Y7073900D01*
X3371850Y7063486D01*
X3371850Y7042658D01*
X3376929Y7032244D01*
X3387343Y7021829D01*
X3397758Y7016750D01*
X3413252Y7011670D01*
X3439159Y7011670D01*
X3454908Y7016750D01*
X3465322Y7021829D01*
X3475736Y7032244D01*
X3480815Y7042658D01*
X3480815Y7063486D01*
X3480815Y6977379D02*
G01*
X3371850Y6977379D01*
X3480815Y6977379D02*
G01*
X3480815Y6930389D01*
X3475736Y6914895D01*
X3470402Y6909815D01*
X3459988Y6904481D01*
X3449574Y6904481D01*
X3439159Y6909815D01*
X3434079Y6914895D01*
X3429000Y6930389D01*
X3429000Y6977379D01*
X3429000Y6940804D02*
G01*
X3371850Y6904481D01*
D10*
X1652803Y6496050D02*
G01*
X1459001Y6496050D01*
X1652803Y6496050D02*
G01*
X1459001Y6366763D01*
X1652803Y6366763D02*
G01*
X1459001Y6366763D01*
X1711502Y8491448D02*
G01*
X1517700Y8491448D01*
X1517700Y8491448D02*
G01*
X1517700Y8380704D01*
D11*
X5055108Y6284721D02*
G01*
X5065522Y6290055D01*
X5075936Y6300470D01*
X5081015Y6310629D01*
X5081015Y6331457D01*
X5075936Y6341871D01*
X5065522Y6352286D01*
X5055108Y6357620D01*
X5039359Y6362700D01*
X5013452Y6362700D01*
X4997958Y6357620D01*
X4987543Y6352286D01*
X4977129Y6341871D01*
X4972050Y6331457D01*
X4972050Y6310629D01*
X4977129Y6300470D01*
X4987543Y6290055D01*
X4997958Y6284721D01*
X5060188Y6250431D02*
G01*
X5065522Y6240018D01*
X5081015Y6224523D01*
X4972050Y6224523D01*
X5258308Y6348221D02*
G01*
X5268722Y6353555D01*
X5279136Y6363970D01*
X5284215Y6374129D01*
X5284215Y6394957D01*
X5279136Y6405371D01*
X5268722Y6415786D01*
X5258308Y6421120D01*
X5242559Y6426200D01*
X5216652Y6426200D01*
X5201158Y6421120D01*
X5190743Y6415786D01*
X5180329Y6405371D01*
X5175250Y6394957D01*
X5175250Y6374129D01*
X5180329Y6363970D01*
X5190743Y6353555D01*
X5201158Y6348221D01*
X5258308Y6308852D02*
G01*
X5263388Y6308852D01*
X5273802Y6303518D01*
X5279136Y6298437D01*
X5284215Y6288023D01*
X5284215Y6267195D01*
X5279136Y6256781D01*
X5273802Y6251702D01*
X5263388Y6246368D01*
X5252974Y6246368D01*
X5242559Y6251702D01*
X5227065Y6262115D01*
X5175250Y6313931D01*
X5175250Y6241287D01*
X6311391Y6923278D02*
G01*
X6300977Y6917944D01*
X6290563Y6907529D01*
X6285484Y6897370D01*
X6285484Y6876542D01*
X6290563Y6866128D01*
X6300977Y6855713D01*
X6311391Y6850379D01*
X6327140Y6845300D01*
X6353047Y6845300D01*
X6368541Y6850379D01*
X6378956Y6855713D01*
X6389370Y6866128D01*
X6394450Y6876542D01*
X6394450Y6897370D01*
X6389370Y6907529D01*
X6378956Y6917944D01*
X6368541Y6923278D01*
X6285484Y6967981D02*
G01*
X6285484Y7025131D01*
X6327140Y6993889D01*
X6327140Y7009384D01*
X6332220Y7019797D01*
X6337300Y7025131D01*
X6353047Y7030212D01*
X6363461Y7030212D01*
X6378956Y7025131D01*
X6389370Y7014718D01*
X6394450Y6998970D01*
X6394450Y6983476D01*
X6389370Y6967981D01*
X6384290Y6962647D01*
X6373875Y6957568D01*
X6274308Y2779521D02*
G01*
X6284722Y2784855D01*
X6295136Y2795270D01*
X6300215Y2805429D01*
X6300215Y2826257D01*
X6295136Y2836671D01*
X6284722Y2847086D01*
X6274308Y2852420D01*
X6258559Y2857500D01*
X6232652Y2857500D01*
X6217158Y2852420D01*
X6206743Y2847086D01*
X6196329Y2836671D01*
X6191250Y2826257D01*
X6191250Y2805429D01*
X6196329Y2795270D01*
X6206743Y2784855D01*
X6217158Y2779521D01*
X6300215Y2693415D02*
G01*
X6227572Y2745231D01*
X6227572Y2667254D01*
X6300215Y2693415D02*
G01*
X6191250Y2693415D01*
X5157470Y1931415D02*
G01*
X5157470Y1848357D01*
X5152136Y1832610D01*
X5147056Y1827529D01*
X5136641Y1822450D01*
X5126227Y1822450D01*
X5115813Y1827529D01*
X5110479Y1832610D01*
X5105400Y1848357D01*
X5105400Y1858771D01*
X5264404Y1915921D02*
G01*
X5253990Y1926336D01*
X5238495Y1931415D01*
X5217668Y1931415D01*
X5201920Y1926336D01*
X5191759Y1915921D01*
X5191759Y1905507D01*
X5196840Y1895094D01*
X5201920Y1889760D01*
X5212334Y1884679D01*
X5243575Y1874265D01*
X5253990Y1869186D01*
X5259070Y1863852D01*
X5264404Y1853437D01*
X5264404Y1837944D01*
X5253990Y1827529D01*
X5238495Y1822450D01*
X5217668Y1822450D01*
X5201920Y1827529D01*
X5191759Y1837944D01*
X5335015Y1931415D02*
G01*
X5335015Y1822450D01*
X5298693Y1931415D02*
G01*
X5371338Y1931415D01*
X5405627Y1869186D02*
G01*
X5499100Y1869186D01*
X5575045Y1931415D02*
G01*
X5533390Y1822450D01*
X5575045Y1931415D02*
G01*
X5616702Y1822450D01*
X5549138Y1858771D02*
G01*
X5600954Y1858771D01*
X5650991Y1931415D02*
G01*
X5650991Y1822450D01*
X5650991Y1931415D02*
G01*
X5723636Y1822450D01*
X5723636Y1931415D02*
G01*
X5723636Y1822450D01*
X5757925Y1931415D02*
G01*
X5757925Y1822450D01*
X5757925Y1931415D02*
G01*
X5825490Y1931415D01*
X5757925Y1879600D02*
G01*
X5799581Y1879600D01*
X5757925Y1822450D02*
G01*
X5825490Y1822450D01*
X5859779Y1931415D02*
G01*
X5859779Y1822450D01*
X5859779Y1931415D02*
G01*
X5901436Y1822450D01*
X5942838Y1931415D02*
G01*
X5901436Y1822450D01*
X5942838Y1931415D02*
G01*
X5942838Y1822450D01*
X6008370Y1931415D02*
G01*
X5997956Y1926336D01*
X5987541Y1915921D01*
X5982461Y1905507D01*
X5977127Y1889760D01*
X5977127Y1863852D01*
X5982461Y1848357D01*
X5987541Y1837944D01*
X5997956Y1827529D01*
X6008370Y1822450D01*
X6029197Y1822450D01*
X6039611Y1827529D01*
X6050025Y1837944D01*
X6055106Y1848357D01*
X6060440Y1863852D01*
X6060440Y1889760D01*
X6055106Y1905507D01*
X6050025Y1915921D01*
X6039611Y1926336D01*
X6029197Y1931415D01*
X6008370Y1931415D01*
X3874770Y1931415D02*
G01*
X3874770Y1848357D01*
X3869436Y1832610D01*
X3864356Y1827529D01*
X3853941Y1822450D01*
X3843527Y1822450D01*
X3833113Y1827529D01*
X3827779Y1832610D01*
X3822700Y1848357D01*
X3822700Y1858771D01*
X3981704Y1915921D02*
G01*
X3971290Y1926336D01*
X3955795Y1931415D01*
X3934968Y1931415D01*
X3919220Y1926336D01*
X3909059Y1915921D01*
X3909059Y1905507D01*
X3914140Y1895094D01*
X3919220Y1889760D01*
X3929634Y1884679D01*
X3960875Y1874265D01*
X3971290Y1869186D01*
X3976370Y1863852D01*
X3981704Y1853437D01*
X3981704Y1837944D01*
X3971290Y1827529D01*
X3955795Y1822450D01*
X3934968Y1822450D01*
X3919220Y1827529D01*
X3909059Y1837944D01*
X4052315Y1931415D02*
G01*
X4052315Y1822450D01*
X4015993Y1931415D02*
G01*
X4088638Y1931415D01*
X4122927Y1869186D02*
G01*
X4216400Y1869186D01*
X4250690Y1931415D02*
G01*
X4250690Y1822450D01*
X4250690Y1931415D02*
G01*
X4287265Y1931415D01*
X4302759Y1926336D01*
X4313174Y1915921D01*
X4318254Y1905507D01*
X4323588Y1889760D01*
X4323588Y1863852D01*
X4318254Y1848357D01*
X4313174Y1837944D01*
X4302759Y1827529D01*
X4287265Y1822450D01*
X4250690Y1822450D01*
X4357877Y1931415D02*
G01*
X4357877Y1822450D01*
X4430522Y1931415D02*
G01*
X4430522Y1822450D01*
X4357877Y1879600D02*
G01*
X4430522Y1879600D01*
X4501134Y1931415D02*
G01*
X4501134Y1822450D01*
X4464811Y1931415D02*
G01*
X4537709Y1931415D01*
X4577079Y1905507D02*
G01*
X4577079Y1910587D01*
X4582159Y1921002D01*
X4587493Y1926336D01*
X4597908Y1931415D01*
X4618736Y1931415D01*
X4629150Y1926336D01*
X4634229Y1921002D01*
X4639309Y1910587D01*
X4639309Y1900173D01*
X4634229Y1889760D01*
X4623815Y1874265D01*
X4572000Y1822450D01*
X4644643Y1822450D01*
X4684013Y1905507D02*
G01*
X4684013Y1910587D01*
X4689347Y1921002D01*
X4694427Y1926336D01*
X4704841Y1931415D01*
X4725670Y1931415D01*
X4736084Y1926336D01*
X4741163Y1921002D01*
X4746497Y1910587D01*
X4746497Y1900173D01*
X4741163Y1889760D01*
X4730750Y1874265D01*
X4678934Y1822450D01*
X4751577Y1822450D01*
X2693670Y1918715D02*
G01*
X2693670Y1835657D01*
X2688336Y1819910D01*
X2683256Y1814829D01*
X2672841Y1809750D01*
X2662427Y1809750D01*
X2652013Y1814829D01*
X2646679Y1819910D01*
X2641600Y1835657D01*
X2641600Y1846071D01*
X2800604Y1903221D02*
G01*
X2790190Y1913636D01*
X2774695Y1918715D01*
X2753868Y1918715D01*
X2738120Y1913636D01*
X2727959Y1903221D01*
X2727959Y1892807D01*
X2733040Y1882394D01*
X2738120Y1877060D01*
X2748534Y1871979D01*
X2779775Y1861565D01*
X2790190Y1856486D01*
X2795270Y1851152D01*
X2800604Y1840737D01*
X2800604Y1825244D01*
X2790190Y1814829D01*
X2774695Y1809750D01*
X2753868Y1809750D01*
X2738120Y1814829D01*
X2727959Y1825244D01*
X2871215Y1918715D02*
G01*
X2871215Y1809750D01*
X2834893Y1918715D02*
G01*
X2907538Y1918715D01*
X2941827Y1856486D02*
G01*
X3035300Y1856486D01*
X3069590Y1918715D02*
G01*
X3069590Y1809750D01*
X3069590Y1809750D02*
G01*
X3132074Y1809750D01*
X3166363Y1918715D02*
G01*
X3166363Y1809750D01*
X3166363Y1918715D02*
G01*
X3202686Y1918715D01*
X3218179Y1913636D01*
X3228593Y1903221D01*
X3233927Y1892807D01*
X3239008Y1877060D01*
X3239008Y1851152D01*
X3233927Y1835657D01*
X3228593Y1825244D01*
X3218179Y1814829D01*
X3202686Y1809750D01*
X3166363Y1809750D01*
X3273297Y1918715D02*
G01*
X3273297Y1809750D01*
X3273297Y1918715D02*
G01*
X3320034Y1918715D01*
X3335781Y1913636D01*
X3340861Y1908302D01*
X3346195Y1897887D01*
X3346195Y1887473D01*
X3340861Y1877060D01*
X3335781Y1871979D01*
X3320034Y1866900D01*
X3273297Y1866900D01*
X3309620Y1866900D02*
G01*
X3346195Y1809750D01*
X1233170Y1906015D02*
G01*
X1233170Y1822957D01*
X1227836Y1807210D01*
X1222755Y1802129D01*
X1212342Y1797050D01*
X1201928Y1797050D01*
X1191513Y1802129D01*
X1186179Y1807210D01*
X1181100Y1822957D01*
X1181100Y1833371D01*
X1340104Y1890521D02*
G01*
X1329689Y1900936D01*
X1314195Y1906015D01*
X1293368Y1906015D01*
X1277620Y1900936D01*
X1267460Y1890521D01*
X1267460Y1880107D01*
X1272539Y1869694D01*
X1277620Y1864360D01*
X1288034Y1859279D01*
X1319276Y1848865D01*
X1329689Y1843786D01*
X1334770Y1838452D01*
X1340104Y1828037D01*
X1340104Y1812544D01*
X1329689Y1802129D01*
X1314195Y1797050D01*
X1293368Y1797050D01*
X1277620Y1802129D01*
X1267460Y1812544D01*
X1410715Y1906015D02*
G01*
X1410715Y1797050D01*
X1374394Y1906015D02*
G01*
X1447037Y1906015D01*
X1481328Y1843786D02*
G01*
X1574800Y1843786D01*
X1681987Y1890521D02*
G01*
X1671573Y1900936D01*
X1656079Y1906015D01*
X1635252Y1906015D01*
X1619504Y1900936D01*
X1609089Y1890521D01*
X1609089Y1880107D01*
X1614423Y1869694D01*
X1619504Y1864360D01*
X1629918Y1859279D01*
X1661160Y1848865D01*
X1671573Y1843786D01*
X1676654Y1838452D01*
X1681987Y1828037D01*
X1681987Y1812544D01*
X1671573Y1802129D01*
X1656079Y1797050D01*
X1635252Y1797050D01*
X1619504Y1802129D01*
X1609089Y1812544D01*
X1747520Y1906015D02*
G01*
X1737105Y1900936D01*
X1726692Y1890521D01*
X1721357Y1880107D01*
X1716278Y1864360D01*
X1716278Y1838452D01*
X1721357Y1822957D01*
X1726692Y1812544D01*
X1737105Y1802129D01*
X1747520Y1797050D01*
X1768094Y1797050D01*
X1778507Y1802129D01*
X1788921Y1812544D01*
X1794255Y1822957D01*
X1799336Y1838452D01*
X1799336Y1864360D01*
X1794255Y1880107D01*
X1788921Y1890521D01*
X1778507Y1900936D01*
X1768094Y1906015D01*
X1747520Y1906015D01*
X1833626Y1906015D02*
G01*
X1833626Y1797050D01*
X1867915Y1906015D02*
G01*
X1867915Y1797050D01*
X1867915Y1797050D02*
G01*
X1930400Y1797050D01*
X1964690Y1906015D02*
G01*
X1964690Y1797050D01*
X1964690Y1906015D02*
G01*
X2006091Y1797050D01*
X2047747Y1906015D02*
G01*
X2006091Y1797050D01*
X2047747Y1906015D02*
G01*
X2047747Y1797050D01*
X2113279Y1906015D02*
G01*
X2102865Y1900936D01*
X2092452Y1890521D01*
X2087118Y1880107D01*
X2082038Y1864360D01*
X2082038Y1838452D01*
X2087118Y1822957D01*
X2092452Y1812544D01*
X2102865Y1802129D01*
X2113279Y1797050D01*
X2133854Y1797050D01*
X2144268Y1802129D01*
X2154681Y1812544D01*
X2160015Y1822957D01*
X2165095Y1838452D01*
X2165095Y1864360D01*
X2160015Y1880107D01*
X2154681Y1890521D01*
X2144268Y1900936D01*
X2133854Y1906015D01*
X2113279Y1906015D01*
X2199386Y1906015D02*
G01*
X2199386Y1797050D01*
X2306320Y1890521D02*
G01*
X2296159Y1900936D01*
X2280411Y1906015D01*
X2259584Y1906015D01*
X2244090Y1900936D01*
X2233675Y1890521D01*
X2233675Y1880107D01*
X2239009Y1869694D01*
X2244090Y1864360D01*
X2254504Y1859279D01*
X2285745Y1848865D01*
X2296159Y1843786D01*
X2301240Y1838452D01*
X2306320Y1828037D01*
X2306320Y1812544D01*
X2296159Y1802129D01*
X2280411Y1797050D01*
X2259584Y1797050D01*
X2244090Y1802129D01*
X2233675Y1812544D01*
X2377186Y1906015D02*
G01*
X2377186Y1797050D01*
X2340609Y1906015D02*
G01*
X2413508Y1906015D01*
X5422900Y2883915D02*
G01*
X5422900Y2774950D01*
X5422900Y2883915D02*
G01*
X5469636Y2883915D01*
X5485129Y2878836D01*
X5490463Y2873502D01*
X5495543Y2863087D01*
X5495543Y2852673D01*
X5490463Y2842260D01*
X5485129Y2837179D01*
X5469636Y2832100D01*
X5422900Y2832100D01*
X5459222Y2832100D02*
G01*
X5495543Y2774950D01*
X5529834Y2863087D02*
G01*
X5540247Y2868421D01*
X5555995Y2883915D01*
X5555995Y2774950D01*
X2641600Y2896615D02*
G01*
X2641600Y2787650D01*
X2641600Y2896615D02*
G01*
X2688336Y2896615D01*
X2703829Y2891536D01*
X2709163Y2886202D01*
X2714243Y2875787D01*
X2714243Y2865373D01*
X2709163Y2854960D01*
X2703829Y2849879D01*
X2688336Y2844800D01*
X2641600Y2844800D01*
X2677922Y2844800D02*
G01*
X2714243Y2787650D01*
X2753868Y2870707D02*
G01*
X2753868Y2875787D01*
X2758947Y2886202D01*
X2764281Y2891536D01*
X2774695Y2896615D01*
X2795270Y2896615D01*
X2805684Y2891536D01*
X2811018Y2886202D01*
X2816097Y2875787D01*
X2816097Y2865373D01*
X2811018Y2854960D01*
X2800604Y2839465D01*
X2748534Y2787650D01*
X2821431Y2787650D01*
X4140200Y6528815D02*
G01*
X4140200Y6419850D01*
X4140200Y6528815D02*
G01*
X4186936Y6528815D01*
X4202429Y6523736D01*
X4207763Y6518402D01*
X4212843Y6507987D01*
X4212843Y6497573D01*
X4207763Y6487160D01*
X4202429Y6482079D01*
X4186936Y6477000D01*
X4140200Y6477000D01*
X4176522Y6477000D02*
G01*
X4212843Y6419850D01*
X4247134Y6528815D02*
G01*
X4247134Y6419850D01*
X4247134Y6528815D02*
G01*
X4314697Y6528815D01*
X4247134Y6477000D02*
G01*
X4288790Y6477000D01*
X4247134Y6419850D02*
G01*
X4314697Y6419850D01*
X4426965Y6502907D02*
G01*
X4421886Y6513321D01*
X4411472Y6523736D01*
X4401058Y6528815D01*
X4380229Y6528815D01*
X4369815Y6523736D01*
X4359402Y6513321D01*
X4354322Y6502907D01*
X4348988Y6487160D01*
X4348988Y6461252D01*
X4354322Y6445757D01*
X4359402Y6435344D01*
X4369815Y6424929D01*
X4380229Y6419850D01*
X4401058Y6419850D01*
X4411472Y6424929D01*
X4421886Y6435344D01*
X4426965Y6445757D01*
X4497577Y6528815D02*
G01*
X4497577Y6419850D01*
X4461256Y6528815D02*
G01*
X4533900Y6528815D01*
X4568190Y6528815D02*
G01*
X4568190Y6419850D01*
X4602479Y6528815D02*
G01*
X4602479Y6419850D01*
X4602479Y6528815D02*
G01*
X4670043Y6528815D01*
X4602479Y6477000D02*
G01*
X4644136Y6477000D01*
X4704334Y6528815D02*
G01*
X4704334Y6419850D01*
X4738624Y6528815D02*
G01*
X4738624Y6419850D01*
X4738624Y6528815D02*
G01*
X4806188Y6528815D01*
X4738624Y6477000D02*
G01*
X4780279Y6477000D01*
X4738624Y6419850D02*
G01*
X4806188Y6419850D01*
X4840477Y6528815D02*
G01*
X4840477Y6419850D01*
X4840477Y6528815D02*
G01*
X4887213Y6528815D01*
X4902961Y6523736D01*
X4908041Y6518402D01*
X4913375Y6507987D01*
X4913375Y6497573D01*
X4908041Y6487160D01*
X4902961Y6482079D01*
X4887213Y6477000D01*
X4840477Y6477000D01*
X4876800Y6477000D02*
G01*
X4913375Y6419850D01*
D10*
X3571493Y6332471D02*
G01*
X3571493Y6250683D01*
X3530600Y6291577D02*
G01*
X3612388Y6291577D01*
X3911600Y6284468D02*
G01*
X3911600Y6293612D01*
X3916172Y6307328D01*
X3925315Y6311900D01*
X3934206Y6311900D01*
X3943350Y6307328D01*
X3961638Y6293612D01*
X3970781Y6289039D01*
X3979672Y6289039D01*
X3988815Y6293612D01*
X3993388Y6302755D01*
X3911600Y6293612D02*
G01*
X3916172Y6302755D01*
X3925315Y6307328D01*
X3934206Y6307328D01*
X3943350Y6302755D01*
X3961638Y6289039D01*
X3970781Y6284468D01*
X3979672Y6284468D01*
X3988815Y6289039D01*
X3993388Y6302755D01*
X3993388Y6311900D01*
X4292600Y6284468D02*
G01*
X4292600Y6293612D01*
X4297172Y6307328D01*
X4306315Y6311900D01*
X4315206Y6311900D01*
X4324350Y6307328D01*
X4342638Y6293612D01*
X4351781Y6289039D01*
X4360672Y6289039D01*
X4369815Y6293612D01*
X4374388Y6302755D01*
X4292600Y6293612D02*
G01*
X4297172Y6302755D01*
X4306315Y6307328D01*
X4315206Y6307328D01*
X4324350Y6302755D01*
X4342638Y6289039D01*
X4351781Y6284468D01*
X4360672Y6284468D01*
X4369815Y6289039D01*
X4374388Y6302755D01*
X4374388Y6311900D01*
X4686300Y6299200D02*
G01*
X4768088Y6299200D01*
D11*
X4573015Y7469378D02*
G01*
X4464050Y7469378D01*
X4573015Y7505700D02*
G01*
X4573015Y7433055D01*
X4573015Y7398765D02*
G01*
X4464050Y7398765D01*
X4573015Y7398765D02*
G01*
X4573015Y7352029D01*
X4567936Y7336281D01*
X4562602Y7331202D01*
X4552188Y7325868D01*
X4541774Y7325868D01*
X4531359Y7331202D01*
X4526279Y7336281D01*
X4521200Y7352029D01*
X4521200Y7398765D01*
X4521200Y7362189D02*
G01*
X4464050Y7325868D01*
X4573015Y7250176D02*
G01*
X4464050Y7291578D01*
X4573015Y7250176D02*
G01*
X4464050Y7208520D01*
X4500372Y7276084D02*
G01*
X4500372Y7224013D01*
X4573015Y7174229D02*
G01*
X4464050Y7174229D01*
X4573015Y7174229D02*
G01*
X4573015Y7106665D01*
X4521200Y7174229D02*
G01*
X4521200Y7132573D01*
X4573015Y7041134D02*
G01*
X4567936Y7051547D01*
X4557522Y7061962D01*
X4547108Y7067295D01*
X4531359Y7072376D01*
X4505452Y7072376D01*
X4489958Y7067295D01*
X4479543Y7061962D01*
X4469129Y7051547D01*
X4464050Y7041134D01*
X4464050Y7020560D01*
X4469129Y7010145D01*
X4479543Y6999731D01*
X4489958Y6994397D01*
X4505452Y6989318D01*
X4531359Y6989318D01*
X4547108Y6994397D01*
X4557522Y6999731D01*
X4567936Y7010145D01*
X4573015Y7020560D01*
X4573015Y7041134D01*
X3352805Y5804918D02*
G01*
X3352805Y5726940D01*
X3357885Y5711446D01*
X3368299Y5701032D01*
X3384047Y5695952D01*
X3394461Y5695952D01*
X3409955Y5701032D01*
X3420369Y5711446D01*
X3425449Y5726940D01*
X3425449Y5804918D01*
X3470153Y5804918D02*
G01*
X3527303Y5804918D01*
X3496315Y5763262D01*
X3511809Y5763262D01*
X3522223Y5758182D01*
X3527303Y5753102D01*
X3532637Y5737354D01*
X3532637Y5726940D01*
X3527303Y5711446D01*
X3516889Y5701032D01*
X3501395Y5695952D01*
X3485901Y5695952D01*
X3470153Y5701032D01*
X3465073Y5706112D01*
X3459739Y5716526D01*
D12*
X5433049Y7153600D02*
G01*
X6188049Y7153600D01*
X5433049Y6003599D02*
G01*
X6188049Y6003599D01*
X6188049Y7153600D02*
G01*
X6188049Y6003599D01*
X5433049Y7153600D02*
G01*
X5433049Y6003599D01*
X3073400Y8839200D02*
G01*
X1028700Y8839200D01*
X1028700Y6083300D01*
X3073400Y6083300D01*
X3073400Y8839200D01*
X1257300Y8667750D02*
G01*
X1257300Y6267450D01*
X2311400Y6267450D01*
X2413000Y6267450D01*
X2857500Y6711950D01*
X2857500Y8235950D01*
X2425700Y8667750D01*
X1257300Y8667750D01*
X3252393Y9017584D02*
G01*
X3252393Y5917590D01*
X862406Y5917590D01*
X862406Y9017584D01*
X3252393Y9017584D01*
X5056477Y5880798D02*
G01*
X4976474Y5880798D01*
X5087462Y5991773D02*
G01*
X5087462Y5911776D01*
X4945496Y5991773D02*
G01*
X4945496Y5911776D01*
X5088044Y6049363D02*
G01*
X5088044Y6129362D01*
X5057061Y6160345D02*
G01*
X4977063Y6160345D01*
X4946083Y6049363D02*
G01*
X4946083Y6129362D01*
X5285077Y5880798D02*
G01*
X5205074Y5880798D01*
X5316062Y5991773D02*
G01*
X5316062Y5911776D01*
X5174096Y5991773D02*
G01*
X5174096Y5911776D01*
X5316644Y6049363D02*
G01*
X5316644Y6129362D01*
X5285661Y6160345D02*
G01*
X5205663Y6160345D01*
X5174683Y6049363D02*
G01*
X5174683Y6129362D01*
X6284622Y6793801D02*
G01*
X6364625Y6793801D01*
X6253637Y6682826D02*
G01*
X6253637Y6762823D01*
X6395603Y6682826D02*
G01*
X6395603Y6762823D01*
X6253055Y6625236D02*
G01*
X6253055Y6545237D01*
X6284038Y6514254D02*
G01*
X6364036Y6514254D01*
X6395016Y6625236D02*
G01*
X6395016Y6545237D01*
X6288377Y2921698D02*
G01*
X6208374Y2921698D01*
X6319362Y3032673D02*
G01*
X6319362Y2952676D01*
X6177396Y3032673D02*
G01*
X6177396Y2952676D01*
X6319944Y3090263D02*
G01*
X6319944Y3170262D01*
X6288961Y3201245D02*
G01*
X6208963Y3201245D01*
X6177983Y3090263D02*
G01*
X6177983Y3170262D01*
X5943600Y2578100D02*
G01*
X5943600Y2514600D01*
X6032500Y2514600D01*
X6032500Y2032000D01*
X5130800Y2032000D01*
X5130800Y2514600D01*
X5194300Y2514600D01*
X5194300Y2578100D01*
X5321300Y2578100D02*
G01*
X5321300Y2514600D01*
X5829300Y2514600D01*
X5829300Y2578100D01*
X5067312Y2578100D02*
G01*
X6083312Y2578100D01*
X6083312Y1981200D01*
X5067312Y1981200D01*
X5067312Y2578100D01*
X4677839Y2578100D02*
G01*
X4677839Y2514600D01*
X4766739Y2514600D01*
X4766739Y2032000D01*
X3865039Y2032000D01*
X3865039Y2514600D01*
X3928539Y2514600D01*
X3928539Y2578100D01*
X4055539Y2578100D02*
G01*
X4055539Y2514600D01*
X4563539Y2514600D01*
X4563539Y2578100D01*
X3801551Y2578100D02*
G01*
X4817551Y2578100D01*
X4817551Y1981200D01*
X3801551Y1981200D01*
X3801551Y2578100D01*
X3412060Y2578100D02*
G01*
X3412060Y2514600D01*
X3500960Y2514600D01*
X3500960Y2032000D01*
X2599260Y2032000D01*
X2599260Y2514600D01*
X2662760Y2514600D01*
X2662760Y2578100D01*
X2789760Y2578100D02*
G01*
X2789760Y2514600D01*
X3297760Y2514600D01*
X3297760Y2578100D01*
X2535773Y2578100D02*
G01*
X3551773Y2578100D01*
X3551773Y1981200D01*
X2535773Y1981200D01*
X2535773Y2578100D01*
X2146300Y2578100D02*
G01*
X2146300Y2514600D01*
X2235200Y2514600D01*
X2235200Y2032000D01*
X1333500Y2032000D01*
X1333500Y2514600D01*
X1397000Y2514600D01*
X1397000Y2578100D01*
X1524000Y2578100D02*
G01*
X1524000Y2514600D01*
X2032000Y2514600D01*
X2032000Y2578100D01*
X1270012Y2578100D02*
G01*
X2286012Y2578100D01*
X2286012Y1981200D01*
X1270012Y1981200D01*
X1270012Y2578100D01*
D11*
X5465521Y2600939D02*
G01*
X5561408Y2600939D01*
X5561408Y2733060D01*
X5465521Y2733060D01*
X5380278Y2600939D02*
G01*
X5284391Y2600939D01*
X5284391Y2733060D01*
X5380278Y2733060D01*
X2684221Y2613639D02*
G01*
X2780108Y2613639D01*
X2780108Y2745760D01*
X2684221Y2745760D01*
X2598978Y2613639D02*
G01*
X2503091Y2613639D01*
X2503091Y2745760D01*
X2598978Y2745760D01*
D12*
X4825276Y6069855D02*
G01*
X4892898Y6069855D01*
X4444276Y6069855D02*
G01*
X4623523Y6069855D01*
X4063276Y6069855D02*
G01*
X4242523Y6069855D01*
X3682276Y6069855D02*
G01*
X3861523Y6069855D01*
X3412901Y6069855D02*
G01*
X3480523Y6069855D01*
X3412901Y5978700D02*
G01*
X4892898Y5978700D01*
X3412901Y5978700D02*
G01*
X3412901Y6368699D01*
X4892898Y6368699D01*
X4892898Y5978697D01*
X3735016Y6368699D02*
G01*
X3735016Y5978697D01*
X5582996Y4667199D02*
G01*
X5582996Y3867200D01*
X6092995Y3867200D01*
X5582996Y4667199D02*
G01*
X6092995Y4667199D01*
X3430300Y3422014D02*
G01*
X3430300Y5112351D01*
X1273004Y3422014D02*
G01*
X3430300Y3422014D01*
X1273004Y5112351D02*
G01*
X3428700Y5112351D01*
X653008Y5114198D02*
G01*
X653008Y3420201D01*
X1273004Y5114198D02*
G01*
X653008Y5114198D01*
X1273004Y3420201D02*
G01*
X653011Y3420201D01*
X1273004Y2870202D02*
G01*
X1273004Y5664197D01*
X6092995Y5664197D02*
G01*
X1273004Y5664197D01*
X6092995Y2870202D02*
G01*
X1273004Y2870202D01*
X6092995Y5664197D02*
G01*
X6092995Y2870202D01*
G75*
G01*
X5057061Y6160351D02*
G02*
X5088044Y6129368I0J-30983D01*
G75*
G01*
X4946078Y6129368D02*
G02*
X4977064Y6160351I30983J0D01*
G75*
G01*
X5087463Y5911781D02*
G02*
X5056477Y5880799I-30983J0D01*
G75*
G01*
X4976480Y5880799D02*
G02*
X4945497Y5911781I0J30982D01*
G75*
G01*
X5285661Y6160351D02*
G02*
X5316644Y6129368I0J-30983D01*
G75*
G01*
X5174678Y6129368D02*
G02*
X5205664Y6160351I30983J0D01*
G75*
G01*
X5316063Y5911781D02*
G02*
X5285077Y5880799I-30983J0D01*
G75*
G01*
X5205080Y5880799D02*
G02*
X5174097Y5911781I0J30982D01*
G75*
G01*
X6284039Y6514249D02*
G02*
X6253056Y6545232I0J30983D01*
G75*
G01*
X6395022Y6545232D02*
G02*
X6364036Y6514249I-30983J0D01*
G75*
G01*
X6253637Y6762819D02*
G02*
X6284623Y6793801I30983J0D01*
G75*
G01*
X6364620Y6793801D02*
G02*
X6395603Y6762819I0J-30982D01*
G75*
G01*
X6288961Y3201251D02*
G02*
X6319944Y3170268I0J-30983D01*
G75*
G01*
X6177978Y3170268D02*
G02*
X6208964Y3201251I30983J0D01*
G75*
G01*
X6319363Y2952681D02*
G02*
X6288377Y2921699I-30983J0D01*
G75*
G01*
X6208380Y2921699D02*
G02*
X6177397Y2952681I0J30982D01*
M02*
