G04 Layer: TopLayer*
G04 EasyEDA v6.5.42, 2024-04-26 10:31:32*
G04 9f6459e1cdc04d20a695041d627ca585,394a4af37713441991a7fd952f151f2e,10*
G04 Gerber Generator version 0.2*
G04 Scale: 100 percent, Rotated: No, Reflected: No *
G04 Dimensions in millimeters *
G04 leading zeros omitted , absolute positions ,4 integer and 5 decimal *
%FSLAX45Y45*%
%MOMM*%

%AMMACRO1*21,1,$1,$2,0,0,$3*%
%ADD10C,1.0000*%
%ADD11C,0.5000*%
%ADD12C,0.2540*%
%ADD13R,0.9000X0.8000*%
%ADD14MACRO1,0.864X0.8065X90.0000*%
%ADD15C,1.8000*%
%ADD16O,6.499987X2.999994*%
%ADD17C,1.7000*%
%ADD18C,1.5240*%
%ADD19C,1.6000*%
%ADD20C,0.6200*%

%LPD*%
D10*
X2566263Y2679700D02*
G01*
X2400300Y2679700D01*
X4699005Y2997202D02*
G01*
X4699005Y3187700D01*
X2921005Y5537202D02*
G01*
X2921005Y5346700D01*
X1397005Y5537202D02*
G01*
X1397005Y5346700D01*
X2257399Y7467600D02*
G01*
X1625600Y7467600D01*
X6324600Y6584797D02*
G01*
X6324600Y6366890D01*
X3581400Y6108700D02*
G01*
X3581400Y5991847D01*
X3743947Y5829300D01*
X4927600Y5829300D02*
G01*
X3759200Y5829300D01*
X5016500Y5949797D02*
G01*
X5016500Y5918200D01*
X4927600Y5829300D01*
X5245100Y5949797D02*
G01*
X5613247Y5949797D01*
X5016500Y5949797D02*
G01*
X5245100Y5949797D01*
D11*
X5613247Y5949797D02*
G01*
X5016500Y5949797D01*
D10*
X5988050Y6324600D02*
G01*
X5613247Y5949797D01*
X5245100Y6089802D02*
G01*
X5499252Y6089802D01*
X5988050Y6578600D01*
X4724400Y6108700D02*
G01*
X4743297Y6089802D01*
X5245100Y6089802D01*
X6324600Y6724802D02*
G01*
X6305397Y6724802D01*
X6197600Y6832600D01*
D11*
X5975350Y6832600D02*
G01*
X6197600Y6832600D01*
X6305400Y6724804D01*
X6324600Y6724804D01*
D10*
X5975350Y6832600D02*
G01*
X6197600Y6832600D01*
X5988050Y6578600D02*
G01*
X5994247Y6584797D01*
X6324600Y6584797D01*
X4343400Y6108700D02*
G01*
X4343400Y6604000D01*
X4572000Y6832600D01*
X4572000Y7772400D01*
X4330700Y8013700D01*
X4330700Y6997700D02*
G01*
X4267200Y6997700D01*
X3962400Y6692900D01*
X3962400Y6108700D01*
X1857400Y8167598D02*
G01*
X3668801Y8167598D01*
X3822700Y8013700D01*
X1857400Y6767601D02*
G01*
X3592601Y6767601D01*
X3822700Y6997700D01*
D11*
X1778012Y2336800D02*
G01*
X1778012Y2362210D01*
X2413005Y2997202D01*
X2716936Y2679700D02*
G01*
X2716936Y2413624D01*
X2793761Y2336800D01*
X3043773Y2336800D02*
G01*
X3043773Y2620434D01*
X2667005Y2997202D01*
X4309551Y2336800D02*
G01*
X4309551Y2459548D01*
X4089400Y2679700D01*
X3937000Y2679700D01*
X3937000Y2997197D01*
X4445005Y2997202D02*
G01*
X4445005Y2933694D01*
X4610100Y2768600D01*
X5486400Y2768600D01*
X5498236Y2756763D01*
X5498236Y2667000D01*
X5575312Y2336800D02*
G01*
X5498236Y2413876D01*
X5498236Y2667000D01*
X4559538Y2336800D02*
G01*
X4559538Y2133600D01*
X3293760Y2336800D02*
G01*
X3293760Y2133600D01*
X5825299Y2336800D02*
G01*
X5622099Y2133600D01*
X2108200Y2133600D01*
X2032000Y2209800D01*
X2032000Y2332799D01*
X2027999Y2336800D01*
X5969005Y2997202D02*
G01*
X5969005Y2480505D01*
X5825299Y2336800D01*
X6248400Y2990697D02*
G01*
X5975510Y2990697D01*
X5969005Y2997202D01*
X6324600Y6724802D02*
G01*
X6381597Y6724802D01*
X6464300Y6642100D01*
X6464300Y3060700D01*
X6394297Y2990697D01*
X6248400Y2990697D01*
X5988050Y6578600D02*
G01*
X5994247Y6584797D01*
X6324600Y6584797D01*
X5016500Y6089802D02*
G01*
X4743297Y6089802D01*
X4724400Y6108700D01*
X5245100Y6089802D02*
G01*
X5016500Y6089802D01*
X5245100Y6089802D02*
G01*
X5499252Y6089802D01*
X5988050Y6578600D01*
X5245100Y5949797D02*
G01*
X5613247Y5949797D01*
X5988050Y6324600D01*
X5016500Y5949797D02*
G01*
X5245100Y5949797D01*
X3581400Y6108700D02*
G01*
X3581400Y5956300D01*
X3708400Y5829300D01*
X4927600Y5829300D01*
X5016500Y5918200D01*
X5016500Y5949797D01*
D12*
X5969000Y2997200D02*
G01*
X5975502Y2990697D01*
X6248400Y2990697D01*
X4152900Y8013700D02*
G01*
X4152900Y6997700D01*
X4000500Y8013700D02*
G01*
X4000500Y6997700D01*
D13*
G01*
X5016500Y5949797D03*
G01*
X5016500Y6089802D03*
G01*
X5245100Y5949797D03*
G01*
X5245100Y6089802D03*
G01*
X6324600Y6724802D03*
G01*
X6324600Y6584797D03*
G01*
X6248400Y2990697D03*
G01*
X6248400Y3130702D03*
D14*
G01*
X5498224Y2667000D03*
G01*
X5347575Y2667000D03*
G01*
X2716924Y2679700D03*
G01*
X2566275Y2679700D03*
D12*
G75*
G01
X4366616Y7759700D02*
G03X4366616Y7759700I-35916J0D01*
G75*
G01
X3858616Y7759700D02*
G03X3858616Y7759700I-35916J0D01*
D15*
G01*
X5988050Y6324600D03*
G01*
X5988050Y6578600D03*
G01*
X5975350Y6832600D03*
D16*
G01*
X1857400Y8167598D03*
G01*
X1857400Y6767601D03*
G01*
X2257399Y7467600D03*
D15*
G01*
X5325300Y2336800D03*
G01*
X5575312Y2336800D03*
G01*
X5825299Y2336800D03*
G01*
X4059539Y2336800D03*
G01*
X4309551Y2336800D03*
G01*
X4559538Y2336800D03*
G01*
X2793761Y2336800D03*
G01*
X3043773Y2336800D03*
G01*
X3293760Y2336800D03*
G01*
X1528000Y2336800D03*
G01*
X1778012Y2336800D03*
G01*
X2027999Y2336800D03*
D17*
G01*
X3581400Y6108700D03*
G01*
X3962400Y6108700D03*
G01*
X4343400Y6108700D03*
G01*
X4724400Y6108700D03*
D18*
G01*
X4330700Y8013700D03*
G01*
X4330700Y6997700D03*
G01*
X3822700Y8013700D03*
G01*
X3822700Y6997700D03*
D19*
G01*
X1397005Y2997202D03*
G01*
X1651005Y2997202D03*
G01*
X1905005Y2997202D03*
G01*
X2159005Y2997202D03*
G01*
X2413005Y2997202D03*
G01*
X2667005Y2997202D03*
G01*
X2921005Y2997202D03*
G01*
X3175005Y2997202D03*
G01*
X3429005Y2997202D03*
G01*
X3683005Y2997202D03*
G01*
X3937005Y2997202D03*
G01*
X4191005Y2997202D03*
G01*
X4445005Y2997202D03*
G01*
X4699005Y2997202D03*
G01*
X4953005Y2997202D03*
G01*
X5207005Y2997202D03*
G01*
X5461005Y2997202D03*
G01*
X5715005Y2997202D03*
G01*
X5969005Y2997202D03*
G01*
X1397005Y5537202D03*
G01*
X1651005Y5537202D03*
G01*
X1905005Y5537202D03*
G01*
X2159005Y5537202D03*
G01*
X2413005Y5537202D03*
G01*
X2667005Y5537202D03*
G01*
X2921005Y5537202D03*
G01*
X3175005Y5537202D03*
G01*
X3429005Y5537202D03*
G01*
X3683005Y5537202D03*
G01*
X3937005Y5537202D03*
G01*
X4191005Y5537202D03*
G01*
X4445005Y5537202D03*
G01*
X4699005Y5537202D03*
G01*
X4953005Y5537202D03*
G01*
X5207005Y5537202D03*
G01*
X5461005Y5537202D03*
G01*
X5715005Y5537202D03*
G01*
X5969005Y5537202D03*
D20*
G01*
X6324600Y6366890D03*
G01*
X1625600Y7467600D03*
G01*
X2921005Y5346700D03*
G01*
X1397005Y5346700D03*
G01*
X1473200Y6045200D03*
G01*
X4699005Y3187700D03*
G01*
X2400300Y2679700D03*
M02*
