G04 Layer: TopPasteMaskLayer*
G04 EasyEDA v6.5.42, 2024-04-26 10:31:32*
G04 9f6459e1cdc04d20a695041d627ca585,394a4af37713441991a7fd952f151f2e,10*
G04 Gerber Generator version 0.2*
G04 Scale: 100 percent, Rotated: No, Reflected: No *
G04 Dimensions in millimeters *
G04 leading zeros omitted , absolute positions ,4 integer and 5 decimal *
%FSLAX45Y45*%
%MOMM*%

%ADD10R,0.9000X0.8000*%

%LPD*%
G36*
X5462422Y2712008D02*
G01*
X5457393Y2706979D01*
X5457393Y2684221D01*
X5494375Y2684221D01*
X5494375Y2651201D01*
X5457393Y2651201D01*
X5457393Y2627020D01*
X5462422Y2621991D01*
X5542381Y2621991D01*
X5547410Y2627020D01*
X5547410Y2706979D01*
X5542381Y2712008D01*
G37*
G36*
X5303418Y2712008D02*
G01*
X5298389Y2706979D01*
X5298389Y2627020D01*
X5303418Y2621991D01*
X5382412Y2621991D01*
X5387390Y2627020D01*
X5387390Y2651201D01*
X5349392Y2651201D01*
X5349392Y2684221D01*
X5387390Y2684221D01*
X5387390Y2706979D01*
X5382412Y2712008D01*
G37*
G36*
X2681122Y2724708D02*
G01*
X2676093Y2719679D01*
X2676093Y2696921D01*
X2713075Y2696921D01*
X2713075Y2663901D01*
X2676093Y2663901D01*
X2676093Y2639720D01*
X2681122Y2634691D01*
X2761081Y2634691D01*
X2766110Y2639720D01*
X2766110Y2719679D01*
X2761081Y2724708D01*
G37*
G36*
X2522118Y2724708D02*
G01*
X2517089Y2719679D01*
X2517089Y2639720D01*
X2522118Y2634691D01*
X2601112Y2634691D01*
X2606090Y2639720D01*
X2606090Y2663901D01*
X2568092Y2663901D01*
X2568092Y2696921D01*
X2606090Y2696921D01*
X2606090Y2719679D01*
X2601112Y2724708D01*
G37*
D10*
G01*
X5016500Y5949797D03*
G01*
X5016500Y6089802D03*
G01*
X5245100Y5949797D03*
G01*
X5245100Y6089802D03*
G01*
X6324600Y6724802D03*
G01*
X6324600Y6584797D03*
G01*
X6248400Y2990697D03*
G01*
X6248400Y3130702D03*
M02*
